<svg xmlns="http://www.w3.org/2000/svg" viewBox="0 0 64 64">
  <defs>
    <radialGradient id="shine" cx="36%" cy="26%" r="70%">
      <stop offset="0" stop-color="#fff4bc"/>
      <stop offset="0.38" stop-color="#f3d778"/>
      <stop offset="1" stop-color="#b98c25"/>
    </radialGradient>
    <linearGradient id="emerald" x1="10" y1="6" x2="54" y2="58">
      <stop offset="0" stop-color="#06362d"/>
      <stop offset="1" stop-color="#021f1a"/>
    </linearGradient>
  </defs>
  <rect width="64" height="64" rx="14" fill="url(#emerald)"/>
  <path d="M32 50c-9.8-8.1-18-14.9-18-24.2 0-5.3 4-9.5 9.2-9.5 3.5 0 6.7 1.9 8.8 5 2.1-3.1 5.3-5 8.8-5 5.2 0 9.2 4.2 9.2 9.5 0 9.3-8.2 16.1-18 24.2z" fill="url(#shine)"/>
  <path d="M20 32c6.4-1.1 17.6-1.1 24 0" fill="none" stroke="#f8f3e7" stroke-width="2.6" stroke-linecap="round" opacity="0.72"/>
  <path d="M24 23c2.1-3 5.8-3.2 8-0.2 2.2-3 5.9-2.8 8 0.2" fill="none" stroke="#f8f3e7" stroke-width="2.4" stroke-linecap="round" opacity="0.84"/>
</svg>
